<svg xmlns="http://www.w3.org/2000/svg" viewBox="0 0 197.3 197.3" width="197" height="197"><path d="M186.15 9.3h-49V3.5c0-1.9-1.6-3.5-3.5-3.5s-3.5 1.6-3.5 3.5v5.8h-63V3.5c0-1.9-1.6-3.5-3.5-3.5s-3.5 1.6-3.5 3.5v5.8h-48.6c-3 0-5.4 2.8-5.4 5.8V192c0 3 2.4 5.3 5.4 5.3h174.6c3 0 5-2.2 5-5.3V15.1c0-3-1.9-5.8-5-5.8zm-126 7v6.4c0 1.9 1.6 3.5 3.5 3.5s3.5-1.6 3.5-3.5v-6.4h63v6.4c0 1.9 1.6 3.5 3.5 3.5s3.5-1.6 3.5-3.5v-6.4h47v28h-171v-28h47zm-47 174v-139h171v139h-171z"/><path d="M63.95 82.3h-32.4c-1.9 0-3.5 1.6-3.5 3.5s1.6 3.5 3.5 3.5h32.4c1.9 0 3.5-1.6 3.5-3.5s-1.6-3.5-3.5-3.5zM115.05 82.3h-32.4c-1.9 0-3.5 1.6-3.5 3.5s1.6 3.5 3.5 3.5h32.4c1.9 0 3.5-1.6 3.5-3.5s-1.6-3.5-3.5-3.5zM166.15 82.3h-32.4c-1.9 0-3.5 1.6-3.5 3.5s1.6 3.5 3.5 3.5h32.4c1.9 0 3.5-1.6 3.5-3.5s-1.5-3.5-3.5-3.5zM63.95 115.3h-32.4c-1.9 0-3.5 1.6-3.5 3.5s1.6 3.5 3.5 3.5h32.4c1.9 0 3.5-1.6 3.5-3.5s-1.6-3.5-3.5-3.5zM115.05 115.3h-32.4c-1.9 0-3.5 1.6-3.5 3.5s1.6 3.5 3.5 3.5h32.4c1.9 0 3.5-1.6 3.5-3.5s-1.6-3.5-3.5-3.5zM166.15 115.3h-32.4c-1.9 0-3.5 1.6-3.5 3.5s1.6 3.5 3.5 3.5h32.4c1.9 0 3.5-1.6 3.5-3.5s-1.5-3.5-3.5-3.5zM63.95 147.3h-32.4c-1.9 0-3.5 1.6-3.5 3.5s1.6 3.5 3.5 3.5h32.4c1.9 0 3.5-1.6 3.5-3.5s-1.6-3.5-3.5-3.5zM115.05 147.3h-32.4c-1.9 0-3.5 1.6-3.5 3.5s1.6 3.5 3.5 3.5h32.4c1.9 0 3.5-1.6 3.5-3.5s-1.6-3.5-3.5-3.5zM166.15 147.3h-32.4c-1.9 0-3.5 1.6-3.5 3.5s1.6 3.5 3.5 3.5h32.4c1.9 0 3.5-1.6 3.5-3.5s-1.5-3.5-3.5-3.5z"/></svg>