<svg xmlns="http://www.w3.org/2000/svg" viewBox="0 0 315 315"><path d="M292.617 146.484h-3.105V95.162c0-17.997-14.642-32.639-32.638-32.639H58.126c-17.996 0-32.638 14.642-32.638 32.639v51.322h-3.106C10.041 146.484 0 156.525 0 168.867v33.162c0 12.342 10.041 22.383 22.383 22.383h27.672v21.064a7 7 0 1 0 14 0v-21.064h186.891v21.064a7 7 0 1 0 14 0v-21.064h27.672c12.342 0 22.383-10.041 22.383-22.383v-33.162c-.001-12.342-10.042-22.383-22.384-22.383zM39.488 95.162c0-10.277 8.36-18.639 18.638-18.639h198.748c10.277 0 18.638 8.361 18.638 18.639v51.322h-8.974v-14.057c0-8.964-7.292-16.256-16.255-16.256h-71.754c-8.965 0-16.258 7.292-16.258 16.256v14.057h-9.543v-14.057c0-8.964-7.293-16.256-16.258-16.256H64.717c-8.963 0-16.255 7.292-16.255 16.256v14.057h-8.974V95.162zm136.783 51.322v-14.057c0-1.223 1.034-2.256 2.258-2.256h71.754c1.223 0 2.255 1.033 2.255 2.256v14.057h-76.267zm-113.809 0v-14.057c0-1.223 1.032-2.256 2.255-2.256h71.754c1.224 0 2.258 1.033 2.258 2.256v14.057H62.462zM301 202.029c0 4.622-3.761 8.383-8.383 8.383H22.383c-4.622 0-8.383-3.761-8.383-8.383v-33.162c0-4.622 3.761-8.383 8.383-8.383h270.234c4.622 0 8.383 3.761 8.383 8.383v33.162z" fill="#fff"/></svg>