
<svg xmlns="http://www.w3.org/2000/svg" viewBox="0 0 320 318" id="blog" width="100%" height="100%"><path d="M280.7 308.9c-6.9 0-13.9-.1-20.8.1-2.6.1-3.5-.5-3.6-3.4-1.1-57.1-19.3-108.1-55.5-152.2-37.3-45.5-85.1-74-142.8-85.7-14.6-2.9-29.2-4.5-44.1-4.5-2.6 0-3.3-.8-3.3-3.3.1-14 .1-28.1 0-42.1 0-2.9.7-3.8 3.7-3.7 64.6 1.1 123 20.8 174.3 59.9 56.2 42.8 92.5 99 109.1 167.7 5.1 20.9 7.5 42.2 7.7 63.8 0 2.7-.7 3.7-3.5 3.6-7-.3-14.1-.2-21.2-.2z"></path><path d="M10.6 137.1c0-7.1.1-14.2-.1-21.2-.1-2.8.9-3.5 3.6-3.5 43.3.9 82.2 14.5 116.4 41 38.5 29.9 62.7 69 72.8 116.7 2.5 11.8 3.6 23.8 3.8 35.9 0 2.5-.8 3.1-3.2 3.1-14.3-.1-28.6-.1-42.9 0-2.4 0-3-.7-3.1-3.1-3.3-61.6-32.8-105.7-88.5-132.1-17.2-8.2-35.7-11.8-54.7-12.2-3.7-.1-4.3-1.2-4.2-4.5.3-6.8.1-13.5.1-20.1z"></path><path d="M59.6 223.7c20.1 0 36.2 16 36.2 36.1 0 20-16 36-36 36-20.1.1-36.2-16-36.2-36.1 0-20 16-36 36-36z"></path></svg>