<svg id="webcam" xmlns="http://www.w3.org/2000/svg" viewBox="0 0 147.29 130"><title>icon-wbk</title><path d="M435.55,113.15H416.83a4.44,4.44,0,1,0,0,8.88h18.72A4.44,4.44,0,1,0,435.55,113.15Z" transform="translate(-351.5 -11.58)"/><path d="M498.66,75.29c0-5.52-9.16-7.9-9.16-7.9L461.58,86.54v-0.1a18.14,18.14,0,0,0-6.23-13.69,32.57,32.57,0,1,0-37.47-4.52H399.66a27.72,27.72,0,1,0-38.31,2,18.19,18.19,0,0,0-9.85,16.16v36.41a18.2,18.2,0,0,0,18.2,18.2h73.67a18.2,18.2,0,0,0,18.2-18.2v-4.91c7.15,6,21.21,17.68,28.68,23.65,8.41-1.83,8.54-8.54,8.54-8.54S498.66,80.81,498.66,75.29ZM439.78,21.56A22.58,22.58,0,1,1,417.2,44.14,22.58,22.58,0,0,1,439.78,21.56Zm-60.34,8.49a19.22,19.22,0,0,1,3.09,38.18h-6.18A19.22,19.22,0,0,1,379.44,30.05Zm74.34,88.64a14.14,14.14,0,0,1-14.14,14.14H373.25a14.14,14.14,0,0,1-14.14-14.14V90.4a14.14,14.14,0,0,1,14-14.14,27.64,27.64,0,0,0,12.7,0h48.62a32.75,32.75,0,0,0,5.36.45c1,0,1.89,0,2.82-.13A14.15,14.15,0,0,1,453.78,90.4v28.29Zm35.79,12.92-28-22.9V95.41l28.21-18.78Z" transform="translate(-351.5 -11.58)"/></svg>